<?xml version="1.0" standalone="no"?>
<!DOCTYPE svg PUBLIC "-//W3C//DTD SVG 20010904//EN"
 "http://www.w3.org/TR/2001/REC-SVG-20010904/DTD/svg10.dtd">
<svg version="1.0" xmlns="http://www.w3.org/2000/svg"
 width="150.000000pt" height="65.000000pt" viewBox="0 0 150.000000 65.000000"
 preserveAspectRatio="xMidYMid meet">
<metadata>
Created by potrace 1.16, written by Peter Selinger 2001-2019
</metadata>
<g transform="translate(0.000000,65.000000) scale(0.100000,-0.100000)"
fill="#000000" stroke="none">
<path d="M1030 521 c-8 -6 -18 -7 -22 -5 -4 3 -8 0 -8 -6 0 -18 -51 -59 -66
-53 -10 3 -12 0 -8 -10 4 -11 -23 -40 -85 -94 -49 -43 -87 -81 -83 -84 4 -3
78 -32 165 -63 100 -37 169 -56 190 -54 25 2 -8 17 -150 66 l-182 64 60 56
c34 32 74 63 90 70 16 6 29 15 29 20 1 37 50 35 50 -3 0 -23 -28 -55 -48 -55
-7 0 -12 -4 -12 -10 0 -5 9 -10 20 -10 14 0 25 12 37 40 20 46 26 47 71 20 17
-11 32 -16 32 -11 0 5 -6 11 -12 14 -10 3 -8 9 5 24 20 23 23 40 5 26 -26 -19
-68 2 -68 34 0 14 4 22 10 18 6 -4 36 -8 68 -9 31 -2 86 -6 122 -9 61 -6 60
-6 -15 7 -136 22 -179 26 -195 17z"/>
</g>
</svg>
